<?xml version="1.0" standalone="no"?>
<!DOCTYPE svg PUBLIC "-//W3C//DTD SVG 1.1//EN" "http://www.w3.org/Graphics/SVG/1.1/DTD/svg11.dtd">
<svg t="1713425160374" class="icon" viewBox="0 0 1472 1024" version="1.1"
  xmlns="http://www.w3.org/2000/svg" p-id="1791" xmlns:xlink="http://www.w3.org/1999/xlink"
  width="287.5" height="200">
  <path d="M240.302391 127.815177l991.504059 0 0 761.535312-991.504059 0 0-761.535312Z"
    fill="#A6BAFB" p-id="1792"></path>
  <path
    d="M1433.879288 840.95158h-75.046238V67.949045A67.932617 67.932617 0 0 0 1290.900433 0.016429H181.224836A67.932617 67.932617 0 0 0 113.357934 67.949045v773.002535H38.13098A38.245981 38.245981 0 0 0 0 879.082561v53.393229a91.787069 91.787069 0 0 0 91.52421 91.52421h1288.961848A91.787069 91.787069 0 0 0 1472.010268 932.47579v-53.393229a38.245981 38.245981 0 0 0-38.13098-38.130981z m-1235.585048-724.505053a30.590213 30.590213 0 0 1 30.50807-30.50807h1014.389219a30.590213 30.590213 0 0 1 30.50807 30.50807v724.554339H198.29424zM532.289427 894.328381h407.579272v17.660838a11.319365 11.319365 0 0 1-11.319365 11.319364H543.559506a11.319365 11.319365 0 0 1-11.319365-11.319364z m886.327611 38.147409a38.180266 38.180266 0 0 1-38.13098 38.13098H91.52421a38.180266 38.180266 0 0 1-38.13098-38.13098v-38.147409h456.191753v17.660838a33.974523 33.974523 0 0 0 33.974523 33.974522H928.549334a33.974523 33.974523 0 0 0 33.974523-33.974522v-17.660838H1418.617038z"
    fill="" p-id="1793"></path>
  <path
    d="M532.289427 889.350489v22.63873a11.319365 11.319365 0 0 0 11.319365 11.319364H928.549334a11.319365 11.319365 0 0 0 11.319365-11.319364v-22.63873z"
    fill="#7E52F3" p-id="1794"></path>
</svg>